<svg width="46" height="46" viewBox="0 0 46 46" fill="none" xmlns="http://www.w3.org/2000/svg">
<g clip-path="url(#clip0_104_239)">
<rect width="46" height="46" rx="8" fill="url(#paint0_linear_104_239)"/>
<rect x="0.1" y="0.1" width="45.8" height="45.8" rx="7.9" stroke="black" stroke-opacity="0.1" stroke-width="0.2"/>
<g filter="url(#filter0_i_104_239)">
<path d="M19.9377 24.57C18.6577 24.43 17.2077 24.36 15.5877 24.36C13.9677 24.36 12.6677 24.43 11.6877 24.57C11.7277 29.25 11.8977 32.04 12.1977 32.94C11.5377 33.14 11.0077 33.24 10.6077 33.24C10.2277 33.24 9.6977 33.22 9.0177 33.18C9.2977 30.84 9.4377 27.51 9.4377 23.19C9.4377 18.87 9.2677 15.75 8.9277 13.83C9.4477 13.63 9.9677 13.53 10.4877 13.53C11.0077 13.53 11.5477 13.55 12.1077 13.59C11.8277 15.83 11.6877 18.71 11.6877 22.23C12.7677 22.35 14.0677 22.41 15.5877 22.41C17.1077 22.41 18.5577 22.33 19.9377 22.17C19.8977 18.35 19.7277 15.57 19.4277 13.83C19.9477 13.63 20.4677 13.53 20.9877 13.53C21.5077 13.53 22.0477 13.55 22.6077 13.59C22.3277 15.81 22.1877 19.32 22.1877 24.12C22.1877 28.92 22.3577 31.86 22.6977 32.94C22.0377 33.14 21.5077 33.24 21.1077 33.24C20.7277 33.24 20.1977 33.22 19.5177 33.18C19.7577 31.16 19.8977 28.29 19.9377 24.57ZM28.4715 33.12C28.7515 30.36 28.8915 26.94 28.8915 22.86C28.8915 18.76 28.7215 15.75 28.3815 13.83C28.9015 13.63 29.4215 13.53 29.9415 13.53C30.4615 13.53 31.0015 13.55 31.5615 13.59C31.2815 15.81 31.1415 18.8 31.1415 22.56C31.1415 26.3 31.2115 29.02 31.3515 30.72C32.0515 30.78 33.1115 30.81 34.5315 30.81C35.9515 30.81 37.1915 30.72 38.2515 30.54C38.4115 31.06 38.4915 31.57 38.4915 32.07C38.4915 32.55 38.4515 32.97 38.3715 33.33C37.9915 33.23 37.1915 33.13 35.9715 33.03C34.7515 32.95 33.5315 32.91 32.3115 32.91C31.0915 32.91 29.8115 32.98 28.4715 33.12Z" fill="url(#paint1_linear_104_239)"/>
</g>
</g>
<defs>
<filter id="filter0_i_104_239" x="8.92773" y="13.53" width="29.5637" height="23.8" filterUnits="userSpaceOnUse" color-interpolation-filters="sRGB">
<feFlood flood-opacity="0" result="BackgroundImageFix"/>
<feBlend mode="normal" in="SourceGraphic" in2="BackgroundImageFix" result="shape"/>
<feColorMatrix in="SourceAlpha" type="matrix" values="0 0 0 0 0 0 0 0 0 0 0 0 0 0 0 0 0 0 127 0" result="hardAlpha"/>
<feOffset dy="4"/>
<feGaussianBlur stdDeviation="2"/>
<feComposite in2="hardAlpha" operator="arithmetic" k2="-1" k3="1"/>
<feColorMatrix type="matrix" values="0 0 0 0 0 0 0 0 0 0 0 0 0 0 0 0 0 0 0.4 0"/>
<feBlend mode="normal" in2="shape" result="effect1_innerShadow_104_239"/>
</filter>
<linearGradient id="paint0_linear_104_239" x1="23" y1="17" x2="23" y2="46" gradientUnits="userSpaceOnUse">
<stop stop-color="#F9F9F9"/>
<stop offset="1" stop-color="#DADADA"/>
</linearGradient>
<linearGradient id="paint1_linear_104_239" x1="24.5455" y1="17.2857" x2="24.3857" y2="39.0139" gradientUnits="userSpaceOnUse">
<stop stop-color="#663399"/>
<stop offset="1" stop-color="#FF69B4"/>
</linearGradient>
<clipPath id="clip0_104_239">
<rect width="46" height="46" fill="white"/>
</clipPath>
</defs>
</svg>
