<svg id="visual" viewBox="0 0 900 200" width="900" height="200" xmlns="http://www.w3.org/2000/svg" xmlns:xlink="http://www.w3.org/1999/xlink" version="1.1"><path d="M0 60L21.5 64.3C43 68.7 86 77.3 128.8 77.8C171.7 78.3 214.3 70.7 257.2 64.7C300 58.7 343 54.3 385.8 60.2C428.7 66 471.3 82 514.2 85.5C557 89 600 80 642.8 76.2C685.7 72.3 728.3 73.7 771.2 72.8C814 72 857 69 878.5 67.5L900 66L900 201L878.5 201C857 201 814 201 771.2 201C728.3 201 685.7 201 642.8 201C600 201 557 201 514.2 201C471.3 201 428.7 201 385.8 201C343 201 300 201 257.2 201C214.3 201 171.7 201 128.8 201C86 201 43 201 21.5 201L0 201Z" fill="#602c94"></path><path d="M0 108L21.5 103.3C43 98.7 86 89.3 128.8 82.3C171.7 75.3 214.3 70.7 257.2 77C300 83.3 343 100.7 385.8 107.8C428.7 115 471.3 112 514.2 108.2C557 104.3 600 99.7 642.8 100.7C685.7 101.7 728.3 108.3 771.2 104.2C814 100 857 85 878.5 77.5L900 70L900 201L878.5 201C857 201 814 201 771.2 201C728.3 201 685.7 201 642.8 201C600 201 557 201 514.2 201C471.3 201 428.7 201 385.8 201C343 201 300 201 257.2 201C214.3 201 171.7 201 128.8 201C86 201 43 201 21.5 201L0 201Z" fill="#8c379f"></path><path d="M0 132L21.5 126.5C43 121 86 110 128.8 108.3C171.7 106.7 214.3 114.3 257.2 115.3C300 116.3 343 110.7 385.8 110.8C428.7 111 471.3 117 514.2 121.3C557 125.7 600 128.3 642.8 127.2C685.7 126 728.3 121 771.2 118.7C814 116.3 857 116.7 878.5 116.8L900 117L900 201L878.5 201C857 201 814 201 771.2 201C728.3 201 685.7 201 642.8 201C600 201 557 201 514.2 201C471.3 201 428.7 201 385.8 201C343 201 300 201 257.2 201C214.3 201 171.7 201 128.8 201C86 201 43 201 21.5 201L0 201Z" fill="#b544a7"></path><path d="M0 142L21.5 141.3C43 140.7 86 139.3 128.8 142C171.7 144.7 214.3 151.3 257.2 152.7C300 154 343 150 385.8 145.8C428.7 141.7 471.3 137.3 514.2 134.3C557 131.3 600 129.7 642.8 133C685.7 136.3 728.3 144.7 771.2 147.3C814 150 857 147 878.5 145.5L900 144L900 201L878.5 201C857 201 814 201 771.2 201C728.3 201 685.7 201 642.8 201C600 201 557 201 514.2 201C471.3 201 428.7 201 385.8 201C343 201 300 201 257.2 201C214.3 201 171.7 201 128.8 201C86 201 43 201 21.5 201L0 201Z" fill="#db55ae"></path><path d="M0 151L21.5 152.3C43 153.7 86 156.3 128.8 160.2C171.7 164 214.3 169 257.2 170.2C300 171.3 343 168.7 385.8 164.7C428.7 160.7 471.3 155.3 514.2 156C557 156.7 600 163.3 642.8 165C685.7 166.7 728.3 163.3 771.2 160.3C814 157.3 857 154.7 878.5 153.3L900 152L900 201L878.5 201C857 201 814 201 771.2 201C728.3 201 685.7 201 642.8 201C600 201 557 201 514.2 201C471.3 201 428.7 201 385.8 201C343 201 300 201 257.2 201C214.3 201 171.7 201 128.8 201C86 201 43 201 21.5 201L0 201Z" fill="#ff69b4"></path></svg>